<svg width="327" height="60" viewBox="0 0 327 60" fill="none" xmlns="http://www.w3.org/2000/svg">
<path d="M31.1718 18.2042C21.8451 14.8886 11.7076 14.6148 2.21558 17.422C1.83828 17.5123 1.48304 17.6777 1.17108 17.9083C0.859111 18.1389 0.596816 18.43 0.39985 18.7643C0.202884 19.0985 0.0752869 19.469 0.0246769 19.8536C-0.0259332 20.2383 0.00148172 20.6292 0.105285 21.003C0.624801 23.0879 1.38259 25.4833 2.29272 27.6551C2.30835 27.7059 2.33276 27.6815 2.33276 27.6307C2.20093 26.6122 2.98411 25.3261 4.5202 24.8583C11.9023 22.5089 19.8468 22.6141 27.1641 25.1581C27.434 25.2504 27.7196 25.2878 28.0042 25.2679C28.2887 25.2481 28.5664 25.1715 28.8209 25.0426C29.0754 24.9137 29.3015 24.7352 29.4859 24.5176C29.6702 24.2999 29.8092 24.0475 29.8945 23.7753C30.8046 20.8457 31.1718 18.8565 31.2626 18.3585C31.2782 18.2657 31.1962 18.2306 31.1718 18.2052V18.2042ZM8.66949 24.6493C7.55136 24.8827 6.0055 25.2499 4.84538 25.6347C2.52611 26.4344 2.63353 29.2566 3.86885 30.157C3.95967 29.6336 4.5202 28.9217 5.14518 28.6815C7.46054 27.7713 9.9468 27.2274 12.4604 27.0028C11.1831 26.4843 9.93703 25.7411 8.68609 24.6484L8.66949 24.6493ZM27.1328 30.2996C23.8008 28.734 20.1887 27.8523 16.5101 27.7065C12.8315 27.5608 9.16094 28.1539 5.71547 29.451C4.61101 29.8679 3.91963 31.2117 4.61101 32.487C5.81883 34.6707 7.18954 36.7602 8.71148 38.7378C8.49274 37.98 8.87945 36.5767 10.3638 36.1178C14.4691 34.8561 18.7766 35.3912 21.6398 36.5504C22.4484 36.8756 23.5929 36.6783 24.2345 35.7174C25.3286 34.0319 26.3237 32.2842 27.2148 30.4832C27.2549 30.4021 27.2149 30.3416 27.1328 30.2996ZM20.4807 40.4165C19.2797 39.81 18.1814 39.0189 17.2259 38.0718C16.7835 37.6294 16.1322 36.9937 15.4457 36.2359C13.8783 36.2359 12.3569 36.3931 10.73 36.9127C9.21928 37.3853 9.07768 39.1304 9.73879 40.0405C10.8569 41.434 11.6411 42.1859 12.892 43.4789C13.555 44.1291 14.4452 44.4954 15.3738 44.5C16.3024 44.5045 17.1962 44.147 17.8655 43.5033C18.842 42.5268 19.4426 41.8754 20.5461 40.6245C20.6115 40.5581 20.5861 40.4419 20.4797 40.4165H20.4807Z" fill="black"/>
<path d="M68.5045 15.68V22.72H60.9845V44H52.1045V22.72H44.6645V15.68H68.5045ZM82.833 44.28C80.5663 44.28 78.5263 43.8133 76.713 42.88C74.8996 41.9467 73.473 40.6133 72.433 38.88C71.4196 37.12 70.913 35.0667 70.913 32.72C70.913 30.3733 71.4196 28.3333 72.433 26.6C73.473 24.84 74.8996 23.4933 76.713 22.56C78.5263 21.6267 80.5663 21.16 82.833 21.16C85.0996 21.16 87.1396 21.6267 88.953 22.56C90.7663 23.4933 92.1796 24.84 93.193 26.6C94.233 28.3333 94.753 30.3733 94.753 32.72C94.753 35.0667 94.233 37.12 93.193 38.88C92.1796 40.6133 90.7663 41.9467 88.953 42.88C87.1396 43.8133 85.0996 44.28 82.833 44.28ZM82.833 36.6C83.6596 36.6 84.353 36.28 84.913 35.64C85.473 34.9733 85.753 34 85.753 32.72C85.753 31.44 85.473 30.48 84.913 29.84C84.353 29.1733 83.6596 28.84 82.833 28.84C82.0063 28.84 81.313 29.1733 80.753 29.84C80.193 30.48 79.913 31.44 79.913 32.72C79.913 34 80.1796 34.9733 80.713 35.64C81.273 36.28 81.9796 36.6 82.833 36.6ZM107.623 25.6C108.529 24.2933 109.636 23.2533 110.943 22.48C112.249 21.68 113.609 21.28 115.023 21.28V30.76H112.503C110.823 30.76 109.583 31.0533 108.783 31.64C108.009 32.2267 107.623 33.2667 107.623 34.76V44H98.7427V21.44H107.623V25.6ZM129.695 44.28C126.308 44.28 123.508 43.4933 121.295 41.92C119.108 40.32 117.921 37.9867 117.735 34.92H127.175C127.308 36.5467 128.028 37.36 129.335 37.36C129.815 37.36 130.215 37.2533 130.535 37.04C130.881 36.8 131.055 36.44 131.055 35.96C131.055 35.2933 130.695 34.76 129.975 34.36C129.255 33.9333 128.135 33.4533 126.615 32.92C124.801 32.28 123.295 31.6533 122.095 31.04C120.921 30.4267 119.908 29.5333 119.055 28.36C118.201 27.1867 117.788 25.68 117.815 23.84C117.815 22 118.281 20.44 119.215 19.16C120.175 17.8533 121.468 16.8667 123.095 16.2C124.748 15.5333 126.601 15.2 128.655 15.2C132.121 15.2 134.868 16 136.895 17.6C138.948 19.2 140.028 21.4533 140.135 24.36H130.575C130.548 23.56 130.348 22.9867 129.975 22.64C129.601 22.2933 129.148 22.12 128.615 22.12C128.241 22.12 127.935 22.2533 127.695 22.52C127.455 22.76 127.335 23.1067 127.335 23.56C127.335 24.2 127.681 24.7333 128.375 25.16C129.095 25.56 130.228 26.0533 131.775 26.64C133.561 27.3067 135.028 27.9467 136.175 28.56C137.348 29.1733 138.361 30.0267 139.215 31.12C140.068 32.2133 140.495 33.5867 140.495 35.24C140.495 36.9733 140.068 38.5333 139.215 39.92C138.361 41.28 137.121 42.3467 135.495 43.12C133.868 43.8933 131.935 44.28 129.695 44.28ZM160.615 21.28C163.201 21.28 165.215 22.1467 166.655 23.88C168.121 25.6133 168.855 27.96 168.855 30.92V44H160.015V32.04C160.015 30.9733 159.721 30.1333 159.135 29.52C158.575 28.88 157.815 28.56 156.855 28.56C155.868 28.56 155.095 28.88 154.535 29.52C153.975 30.1333 153.695 30.9733 153.695 32.04V44H144.815V14.4H153.695V24.88C154.388 23.8133 155.308 22.9467 156.455 22.28C157.628 21.6133 159.015 21.28 160.615 21.28ZM184.625 44.28C182.359 44.28 180.319 43.8133 178.505 42.88C176.692 41.9467 175.265 40.6133 174.225 38.88C173.212 37.12 172.705 35.0667 172.705 32.72C172.705 30.3733 173.212 28.3333 174.225 26.6C175.265 24.84 176.692 23.4933 178.505 22.56C180.319 21.6267 182.359 21.16 184.625 21.16C186.892 21.16 188.932 21.6267 190.745 22.56C192.559 23.4933 193.972 24.84 194.985 26.6C196.025 28.3333 196.545 30.3733 196.545 32.72C196.545 35.0667 196.025 37.12 194.985 38.88C193.972 40.6133 192.559 41.9467 190.745 42.88C188.932 43.8133 186.892 44.28 184.625 44.28ZM184.625 36.6C185.452 36.6 186.145 36.28 186.705 35.64C187.265 34.9733 187.545 34 187.545 32.72C187.545 31.44 187.265 30.48 186.705 29.84C186.145 29.1733 185.452 28.84 184.625 28.84C183.799 28.84 183.105 29.1733 182.545 29.84C181.985 30.48 181.705 31.44 181.705 32.72C181.705 34 181.972 34.9733 182.505 35.64C183.065 36.28 183.772 36.6 184.625 36.6ZM209.415 24.52C209.975 23.48 210.775 22.6667 211.815 22.08C212.882 21.4667 214.148 21.16 215.615 21.16C217.375 21.16 218.962 21.6267 220.375 22.56C221.788 23.4667 222.895 24.8 223.695 26.56C224.522 28.2933 224.935 30.3467 224.935 32.72C224.935 35.0933 224.522 37.16 223.695 38.92C222.895 40.6533 221.788 41.9867 220.375 42.92C218.962 43.8267 217.375 44.28 215.615 44.28C214.148 44.28 212.882 43.9867 211.815 43.4C210.775 42.7867 209.975 41.96 209.415 40.92V54.8H200.535V21.44H209.415V24.52ZM215.935 32.72C215.935 31.52 215.628 30.5867 215.015 29.92C214.402 29.2533 213.615 28.92 212.655 28.92C211.695 28.92 210.908 29.2533 210.295 29.92C209.682 30.5867 209.375 31.52 209.375 32.72C209.375 33.92 209.682 34.8533 210.295 35.52C210.908 36.1867 211.695 36.52 212.655 36.52C213.615 36.52 214.402 36.1867 215.015 35.52C215.628 34.8533 215.935 33.92 215.935 32.72ZM237.802 24.52C238.362 23.48 239.162 22.6667 240.202 22.08C241.269 21.4667 242.536 21.16 244.002 21.16C245.762 21.16 247.349 21.6267 248.762 22.56C250.176 23.4667 251.282 24.8 252.082 26.56C252.909 28.2933 253.322 30.3467 253.322 32.72C253.322 35.0933 252.909 37.16 252.082 38.92C251.282 40.6533 250.176 41.9867 248.762 42.92C247.349 43.8267 245.762 44.28 244.002 44.28C242.536 44.28 241.269 43.9867 240.202 43.4C239.162 42.7867 238.362 41.96 237.802 40.92V54.8H228.922V21.44H237.802V24.52ZM244.322 32.72C244.322 31.52 244.016 30.5867 243.402 29.92C242.789 29.2533 242.002 28.92 241.042 28.92C240.082 28.92 239.296 29.2533 238.682 29.92C238.069 30.5867 237.762 31.52 237.762 32.72C237.762 33.92 238.069 34.8533 238.682 35.52C239.296 36.1867 240.082 36.52 241.042 36.52C242.002 36.52 242.789 36.1867 243.402 35.52C244.016 34.8533 244.322 33.92 244.322 32.72ZM261.79 19.64C260.243 19.64 259.003 19.2267 258.07 18.4C257.137 17.5733 256.67 16.5333 256.67 15.28C256.67 14 257.137 12.9467 258.07 12.12C259.003 11.2667 260.243 10.84 261.79 10.84C263.31 10.84 264.537 11.2667 265.47 12.12C266.403 12.9467 266.87 14 266.87 15.28C266.87 16.5333 266.403 17.5733 265.47 18.4C264.537 19.2267 263.31 19.64 261.79 19.64ZM266.19 21.44V44H257.31V21.44H266.19ZM287.2 21.28C289.787 21.28 291.8 22.1467 293.24 23.88C294.707 25.6133 295.44 27.96 295.44 30.92V44H286.6V32.04C286.6 30.9733 286.307 30.1333 285.72 29.52C285.16 28.88 284.4 28.56 283.44 28.56C282.454 28.56 281.68 28.88 281.12 29.52C280.56 30.1333 280.28 30.9733 280.28 32.04V44H271.4V21.44H280.28V24.88C280.974 23.8133 281.894 22.9467 283.04 22.28C284.214 21.6133 285.6 21.28 287.2 21.28ZM308.611 21.16C310.078 21.16 311.344 21.4667 312.411 22.08C313.478 22.6667 314.291 23.48 314.851 24.52V21.44H323.691V43.6C323.691 45.7067 323.304 47.6267 322.531 49.36C321.758 51.0933 320.504 52.48 318.771 53.52C317.064 54.56 314.864 55.08 312.171 55.08C308.544 55.08 305.664 54.2267 303.531 52.52C301.424 50.84 300.224 48.5467 299.931 45.64H308.651C308.891 46.8133 309.851 47.4 311.531 47.4C312.571 47.4 313.384 47.1333 313.971 46.6C314.558 46.0667 314.851 45.0667 314.851 43.6V40.92C314.291 41.96 313.478 42.7867 312.411 43.4C311.344 43.9867 310.078 44.28 308.611 44.28C306.851 44.28 305.264 43.8267 303.851 42.92C302.438 41.9867 301.318 40.6533 300.491 38.92C299.691 37.16 299.291 35.0933 299.291 32.72C299.291 30.3467 299.691 28.2933 300.491 26.56C301.318 24.8 302.438 23.4667 303.851 22.56C305.264 21.6267 306.851 21.16 308.611 21.16ZM314.851 32.72C314.851 31.52 314.544 30.5867 313.931 29.92C313.318 29.2533 312.531 28.92 311.571 28.92C310.611 28.92 309.824 29.2533 309.211 29.92C308.598 30.5867 308.291 31.52 308.291 32.72C308.291 33.92 308.598 34.8533 309.211 35.52C309.824 36.1867 310.611 36.52 311.571 36.52C312.531 36.52 313.318 36.1867 313.931 35.52C314.544 34.8533 314.851 33.92 314.851 32.72Z" fill="black"/>
</svg>
