<svg width="409" height="51" viewBox="0 0 409 51" fill="none" xmlns="http://www.w3.org/2000/svg">
    <path d="M307 19.9755C288.333 24.3088 245.4 35.9755 223 47.9755C279.667 53.3088 396.2 55.1755 409 19.9755C391 16.9755 345.4 12.7755 307 19.9755Z"
          fill="#EBD96B"/>
    <path d="M32.992 35H22.336L11.056 17.912V35H0.4V1.016H11.056L22.336 18.392V1.016H32.992V35ZM51.3423 9.512V13.688H61.9023V21.704H51.3423V26.504H63.3423V35H40.6863V1.016H63.3423V9.512H51.3423ZM119.198 1.016L111.422 35H98.1741L94.2381 15.704L90.3021 35H77.0541L69.2781 1.016H80.7501L83.8221 22.424L88.4301 1.016H100.046L104.654 22.424L107.726 1.016H119.198ZM158.728 29.864H147.4L145.72 35H134.536L146.968 1.016H159.256L171.64 35H160.408L158.728 29.864ZM156.136 21.848L153.064 12.392L149.992 21.848H156.136ZM194.029 35L187.645 22.808H187.597V35H176.941V1.016H192.781C195.533 1.016 197.885 1.512 199.837 2.504C201.789 3.464 203.245 4.792 204.205 6.488C205.197 8.152 205.693 10.04 205.693 12.152C205.693 14.424 205.053 16.44 203.773 18.2C202.525 19.96 200.717 21.224 198.349 21.992L205.741 35H194.029ZM187.597 15.704H191.821C192.845 15.704 193.613 15.48 194.125 15.032C194.637 14.552 194.893 13.816 194.893 12.824C194.893 11.928 194.621 11.224 194.077 10.712C193.565 10.2 192.813 9.944 191.821 9.944H187.597V15.704ZM229.065 35L222.681 22.808H222.633V35H211.977V1.016H227.817C230.569 1.016 232.921 1.512 234.873 2.504C236.825 3.464 238.281 4.792 239.241 6.488C240.233 8.152 240.729 10.04 240.729 12.152C240.729 14.424 240.089 16.44 238.809 18.2C237.561 19.96 235.753 21.224 233.385 21.992L240.777 35H229.065ZM222.633 15.704H226.857C227.881 15.704 228.649 15.48 229.161 15.032C229.673 14.552 229.929 13.816 229.929 12.824C229.929 11.928 229.657 11.224 229.113 10.712C228.601 10.2 227.849 9.944 226.857 9.944H222.633V15.704ZM257.669 1.016V35H247.013V1.016H257.669ZM299.586 1.016L288.162 35H274.386L262.962 1.016H274.29L281.298 24.392L288.258 1.016H299.586ZM326.643 29.864H315.315L313.635 35H302.451L314.883 1.016H327.171L339.555 35H328.323L326.643 29.864ZM324.051 21.848L320.979 12.392L317.907 21.848H324.051ZM355.512 26.936H365.784V35H344.856V1.016H355.512V26.936ZM385.313 35.336C381.249 35.336 377.889 34.392 375.233 32.504C372.609 30.584 371.185 27.784 370.961 24.104H382.289C382.449 26.056 383.313 27.032 384.881 27.032C385.457 27.032 385.937 26.904 386.321 26.648C386.737 26.36 386.945 25.928 386.945 25.352C386.945 24.552 386.513 23.912 385.649 23.432C384.785 22.92 383.441 22.344 381.617 21.704C379.441 20.936 377.633 20.184 376.193 19.448C374.785 18.712 373.569 17.64 372.545 16.232C371.521 14.824 371.025 13.016 371.057 10.808C371.057 8.6 371.617 6.728 372.737 5.192C373.889 3.624 375.441 2.44 377.393 1.64C379.377 0.839998 381.601 0.439999 384.065 0.439999C388.225 0.439999 391.521 1.4 393.953 3.32C396.417 5.24 397.713 7.944 397.841 11.432H386.369C386.337 10.472 386.097 9.784 385.649 9.368C385.201 8.952 384.657 8.744 384.017 8.744C383.569 8.744 383.201 8.904 382.913 9.224C382.625 9.512 382.481 9.928 382.481 10.472C382.481 11.24 382.897 11.88 383.729 12.392C384.593 12.872 385.953 13.464 387.809 14.168C389.953 14.968 391.713 15.736 393.089 16.472C394.497 17.208 395.713 18.232 396.737 19.544C397.761 20.856 398.273 22.504 398.273 24.488C398.273 26.568 397.761 28.44 396.737 30.104C395.713 31.736 394.225 33.016 392.273 33.944C390.321 34.872 388.001 35.336 385.313 35.336Z"
          fill="black"/>
</svg>
